<svg width="22" height="13" viewBox="0 0 22 13" fill="none" xmlns="http://www.w3.org/2000/svg">
  <path d="M20.504 12.381H18.222C17.359 12.381 17.099 11.682 15.552 10.134C14.2 8.83103 13.629 8.66903 13.287 8.66903C12.814 8.66903 12.685 8.79903 12.685 9.45003V11.502C12.685 12.057 12.505 12.382 11.055 12.382C9.64829 12.2875 8.28416 11.8602 7.07497 11.1352C5.86578 10.4102 4.84612 9.4083 4.1 8.21203C2.32839 6.00705 1.09571 3.41911 0.5 0.654028C0.5 0.312028 0.63 0.00202819 1.282 0.00202819H3.562C4.148 0.00202819 4.359 0.263029 4.589 0.866028C5.696 4.12403 7.585 6.95803 8.352 6.95803C8.646 6.95803 8.774 6.82803 8.774 6.09503V2.73903C8.677 1.20803 7.864 1.07903 7.864 0.525028C7.87428 0.378869 7.94114 0.242477 8.05037 0.144821C8.15961 0.047166 8.30261 -0.00405861 8.449 0.00202819H12.033C12.523 0.00202819 12.685 0.246028 12.685 0.832028V5.36203C12.685 5.85103 12.895 6.01303 13.043 6.01303C13.337 6.01303 13.563 5.85103 14.102 5.31303C15.2574 3.90401 16.2013 2.3342 16.904 0.653028C16.9759 0.451181 17.1119 0.278403 17.2912 0.161045C17.4705 0.0436879 17.6832 -0.0118061 17.897 0.00302812H20.178C20.862 0.00302812 21.007 0.345028 20.862 0.833028C20.0324 2.69144 19.0058 4.45553 17.8 6.09503C17.554 6.47003 17.456 6.66503 17.8 7.10503C18.026 7.44703 18.826 8.11503 19.363 8.75003C20.145 9.53003 20.794 10.432 21.285 11.42C21.481 12.056 21.155 12.381 20.504 12.381Z" fill="white"/>
</svg>
