<svg width="24" height="17" viewBox="0 0 24 17" fill="none" xmlns="http://www.w3.org/2000/svg">
  <path d="M12.0765 -0.00152588H12.21C13.443 0.00297412 19.6905 0.0479744 21.375 0.500974C21.8842 0.639227 22.3483 0.908708 22.7207 1.28249C23.0932 1.65627 23.361 2.12125 23.4975 2.63097C23.649 3.20097 23.7555 3.95547 23.8275 4.73397L23.8425 4.88997L23.8755 5.27997L23.8875 5.43597C23.985 6.80697 23.997 8.09097 23.9985 8.37147V8.48397C23.997 8.77497 23.9835 10.146 23.8755 11.574L23.8635 11.7315L23.85 11.8875C23.775 12.7455 23.664 13.5975 23.4975 14.2245C23.3615 14.7344 23.0938 15.1996 22.7212 15.5735C22.3487 15.9473 21.8844 16.2166 21.375 16.3545C19.635 16.8225 13.0215 16.8555 12.105 16.857H11.892C11.4285 16.857 9.5115 16.848 7.5015 16.779L7.2465 16.77L7.116 16.764L6.8595 16.7535L6.603 16.743C4.938 16.6695 3.3525 16.551 2.622 16.353C2.11273 16.2153 1.6486 15.9462 1.27609 15.5726C0.903575 15.199 0.63577 14.7341 0.4995 14.2245C0.333 13.599 0.222 12.7455 0.147 11.8875L0.135 11.73L0.123 11.574C0.0489714 10.5576 0.0079498 9.53904 0 8.51997L0 8.33547C0.003 8.01297 0.015 6.89847 0.096 5.66847L0.1065 5.51397L0.111 5.43597L0.123 5.27997L0.156 4.88997L0.171 4.73397C0.243 3.95547 0.3495 3.19947 0.501 2.63097C0.63704 2.12105 0.904743 1.65584 1.27727 1.282C1.6498 0.908155 2.11405 0.638813 2.6235 0.500974C3.354 0.305974 4.9395 0.185974 6.6045 0.110974L6.8595 0.100474L7.1175 0.0914744L7.2465 0.0869743L7.503 0.0764744C8.93056 0.0305362 10.3587 0.00503342 11.787 -2.58087e-05H12.0765V-0.00152588ZM9.6 4.81347V12.0405L15.8355 8.42847L9.6 4.81347Z" fill="white"/>
</svg>
